<?xml version="1.0" encoding="UTF-8" standalone="no"?>
<!DOCTYPE svg PUBLIC "-//W3C//DTD SVG 1.1//EN" "http://www.w3.org/Graphics/SVG/1.1/DTD/svg11.dtd">
<svg width="100%" height="100%" viewBox="0 0 1000 1000" version="1.1" xmlns="http://www.w3.org/2000/svg" xmlns:xlink="http://www.w3.org/1999/xlink" xml:space="preserve" xmlns:serif="http://www.serif.com/" style="fill-rule:evenodd;clip-rule:evenodd;stroke-linejoin:round;stroke-miterlimit:2;">
    <g transform="matrix(1,0,0,1,25,-34)">
        <path d="M545.68,888.676L533.412,856.062C541.897,852.621 540.985,849.741 550.129,849.283C559.551,848.811 562.038,848.342 565.383,847.741C572.431,846.475 575.103,845.43 576.943,844.733C581.22,843.113 584.284,841.102 589.039,838.754C589.625,838.465 591.18,837.697 596.517,835.47C600.224,833.923 600.374,834.034 603.056,832.893C607.163,831.148 607.194,831.234 611.323,829.531C617.327,827.055 622.613,825.892 632.243,825.618C635.81,825.517 635.803,825.472 642.767,825.316C646.957,825.223 659.256,824.492 660.664,824.358C662.865,824.147 665.065,823.938 667.265,823.725C676.647,822.818 675.729,826.687 684.627,829.8L679.68,861.409C670.675,859.946 670.194,862.121 661.815,858.506C661.36,858.31 655.925,855.798 644.76,851.635C633.36,847.383 625.519,845.567 621.878,845.606C619.782,845.628 617.862,846.004 615.777,846.495C615.412,846.581 609.379,848.396 607.501,849.209C602.065,851.564 600.539,852.643 599.334,853.452C595.206,856.222 594.037,857.84 588.369,862.585C587.826,863.04 586.541,864.115 581.411,868.078C575.358,872.754 575.204,872.543 568.525,877.662C568.025,878.045 562.319,882.417 562.265,882.437C556.75,884.551 551.195,886.562 545.68,888.676Z"/>
    </g>
    <g transform="matrix(1,0,0,1,25,-34)">
        <path d="M170.614,443.516L150.429,458.214C143.585,449.052 143.498,449.121 140.558,444.864C129.136,428.322 91.132,367.078 66.751,309.239C45.013,257.669 42.261,230.21 42.661,214.747C43.26,191.557 51.911,181.101 56.476,175.567C92.024,132.476 136.209,151.034 154.552,159.635C165.316,164.682 175.579,170.668 182.1,173.396C200.051,180.906 266.75,209.087 327.476,258.496C332.858,262.875 339.853,268.774 347.451,275.795C357.543,285.121 366.623,294.741 373.687,302.028L355.504,319.647C354.557,318.672 344.85,308.674 343.638,307.486C330.553,294.662 296.488,263.11 232.187,229.479C197.854,211.522 172.456,202.273 167.84,200.272C149.283,192.227 121.723,173.299 99.302,181.406C88.563,185.289 81.293,194.29 78.244,198.27C70.397,208.511 71.505,236.387 87.767,281.909C102.085,321.987 126.809,372.013 150.844,412.986C158.099,425.352 162.177,431.528 163.189,432.966L170.614,443.516Z"/>
    </g>
    <g transform="matrix(1,0,0,1,25,-34)">
        <path d="M351.223,320.067L339.097,294.87C351.052,289.285 351.083,289.353 356.553,286.659C407.754,261.437 427.968,229.668 466.745,222.019C496.544,216.141 518,222.229 551.398,228.789C572.894,233.011 596.024,237.107 631.426,241.083C634.313,241.407 634.306,241.427 647.532,243.059L644.164,270.494C627.96,268.503 627.949,268.606 611.81,266.152C542.237,255.571 515.341,244.715 490.692,244.897C489.138,244.908 481.03,244.968 471.381,246.999C440.178,253.567 419.538,286.245 364.283,313.603L351.223,320.067Z"/>
    </g>
    <g transform="matrix(1,0,0,1,25,-34)">
        <path d="M748.514,100.609C741.727,107.865 721.593,131.063 698.068,160.767C691.429,169.149 643.831,227.991 620.935,271.539C620.564,272.244 620.564,272.243 620.534,272.305C617.82,277.835 617.841,277.843 615.128,283.371L593.001,272.523C597.904,262.437 597.92,262.446 599.594,258.907C610.094,236.708 626.048,211.475 628.252,207.956C633.024,200.336 653.12,169.006 679.724,133.35C700.001,106.172 722.435,78.018 727.261,73.667C727.899,73.092 729.762,71.15 736.614,68.545C752.555,62.484 782.401,58.913 817.728,54.023C823.031,53.289 838.761,51.346 860.698,48.207C861.528,48.088 870.519,46.802 871.082,46.741C872.067,46.636 873.057,46.527 874.048,46.548C880.241,46.673 884.246,50.085 884.956,50.69C888.014,53.295 891.273,58.603 891.734,59.353C905.514,81.798 900.485,108.803 890.667,144.588C883.813,169.571 869.645,215.32 857.725,258.867C849.479,288.991 843.351,313.883 839.079,331.86C838.333,335.003 838.373,335.011 835.525,348.239L811.429,343.059C813.662,332.677 813.732,332.694 815.8,322.277C824.852,276.683 833.544,239.586 840.727,210.29C849.562,174.255 861.949,131.076 865.2,107.063C866.837,94.972 866.457,87.864 864.902,82.938C860.67,83.605 857.425,84.075 849.282,85.279C816.956,90.056 811.24,90.455 788.202,93.549C772.6,95.645 756.783,97.693 748.514,100.609Z"/>
    </g>
    <g transform="matrix(1,0,0,1,25,-34)">
        <path d="M827.149,795.903C838.387,757.202 844.764,732.676 844.353,713.101C843.93,692.994 836.001,670.376 829.012,639.982C825.575,625.034 822.672,606.124 819.682,565.487C818.536,549.924 817.242,521.702 817.067,517.892C815.953,493.603 814.857,467.131 813.351,401.596C812.971,385.069 812.369,350.601 812.181,339.13C812.159,337.778 812.148,337.779 811.773,322.233L840.109,321.292C840.098,325.931 839.929,330.568 839.918,335.206C839.918,335.3 843.47,406.261 846.737,459.062C849.79,508.385 851.417,533.048 854.828,571.063C859.156,619.29 862.683,629.021 867.063,646.674C878.948,694.571 884.815,711.607 871.473,762.089C868.074,774.954 863.525,789.828 858.259,806.369C854.625,817.785 841.619,828.569 809.785,854.212C779.159,878.882 780.209,880.066 767.586,892.796C753.402,907.1 742.524,912.833 716.489,912.699C712.021,912.676 707.643,912.486 705.157,912.364C703.077,912.262 703.08,912.235 679.17,910.854L680.776,883.1C693.986,883.863 693.977,883.965 701.207,884.207C730.956,885.203 735.72,882.563 742.599,875.969C749.08,869.756 754.376,862.497 764.541,852.633C785.166,832.619 818.977,806.885 826.93,796.2C827.029,796.067 827.095,795.978 827.149,795.903Z"/>
    </g>
    <g transform="matrix(1,0,0,1,25,-34)">
        <path d="M113.58,375.352L141.143,369.589C141.736,374.065 142.037,378.576 142.63,383.051C142.652,383.221 165.626,484.391 174.091,521.374L215.628,704.764C222.433,734.663 225.743,747.521 239.168,762.897C254.792,780.793 279.992,799.086 329.961,851.272C344.549,866.508 344.605,867.153 346.765,868.623C361.307,878.524 408.774,872.288 485.812,866.773C500.332,865.733 500.326,865.68 511.333,864.775L513.539,891.644C497.37,892.976 497.37,892.919 481.234,894.579C393.27,903.629 354.965,910.849 330.058,895.443C324.471,891.987 321.849,888.926 316.778,883.783C238.743,804.643 211.561,795.939 194.501,757.949C187.798,743.023 184.565,727.698 181.196,712.497C171.251,667.622 161.514,619.039 158.581,604.519C144.925,536.919 144.995,536.907 131.792,469.216C126.062,439.836 116.674,390.759 116.238,388.571C115.359,384.163 114.458,379.76 113.58,375.352Z"/>
    </g>
    <g transform="matrix(1,0,0,1,24,-19)">
        <path d="M654.759,877.432C654.633,877.217 654.56,877.088 654.56,877.068C654.569,876.704 654.752,876.789 659.156,871.928C659.562,871.48 672.214,859.564 673.18,858.689C677.31,854.949 685.933,847.65 687.053,846.703C687.55,846.282 691.709,842.582 706.795,830.832C725.722,816.09 737.154,807.813 739.838,805.87C743.743,803.042 766.014,786.98 778.152,778.696C786.955,772.686 787.032,772.799 790.854,769.89L799.865,763.034L813.568,781.043L802.606,789.393C801.119,790.575 801.199,790.667 784.602,804.872C770.525,816.922 764.296,822.531 749.411,835.779C728.827,854.099 717.84,864.946 712.398,870.055C702.291,879.543 700.816,881.26 695.165,886.574C688.304,893.024 684.103,897.122 683.237,897.814C676.872,902.896 674.441,904.577 670.728,906.31C667.517,907.808 661.186,910.25 653.088,908.145C651.433,907.714 641.32,903.372 626.848,899.964C618.581,898.017 612.412,897.241 609.314,896.889C609.289,896.886 602.603,896.302 598.706,896.457C593.651,896.659 592.314,896.868 591.764,896.954C584.744,898.052 580.854,899.123 579.921,899.38C570.018,902.107 563.066,904.972 556.678,907.257C548.647,910.131 535.808,914.526 519.621,913.951C511.605,913.667 503.8,907.813 490.945,897.236C490.479,896.853 480.045,887.787 477.606,885.42C476.902,884.737 469.318,877.378 468.835,876.86C468.554,876.558 460.079,867.132 459.938,866.967C459.49,866.441 449.668,854.723 449.515,854.534C449.499,854.515 437.526,839.491 436.374,838.048C429.841,829.864 429.789,829.91 423.377,821.632C406.779,800.206 396.673,787.511 392.419,782.11L409.271,766.997C414.136,771.777 426.728,784.239 445.179,802.114C452.699,809.399 452.645,809.446 460.06,816.839C466.995,823.753 474.183,830.836 476.059,832.785C485.804,842.913 485.823,842.891 486.728,843.89C494.731,852.717 494.763,852.689 495.578,853.7C502.599,862.405 502.655,862.358 504.185,864.391C509.3,871.187 509.362,871.134 514.521,877.9C521.833,887.491 523.66,888.567 523.531,888.839C523.489,888.926 523.446,889.015 523.402,889.107C535.543,891.96 544.708,890.577 563.454,886.781C566.051,886.255 568.6,885.562 581.227,883.535C587.373,882.548 588.243,882.666 592.14,882.067C596.337,881.422 596.349,881.528 600.551,880.913C601.452,880.781 603.27,880.514 611.845,879.505C629.868,877.382 647.471,877.393 654.759,877.432Z"/>
    </g>
    <g transform="matrix(1,0,0,1,25,-34)">
        <path d="M664.491,709.002C664.214,703.255 663.271,691.465 659.616,665.823C658.653,659.061 655.071,633.929 645.658,581.587C642.188,562.294 639.283,547.185 639.009,545.751C638.578,543.495 638.586,543.496 638.546,543.328C637.315,538.09 637.214,538.117 635.982,532.877L657.144,528.201C657.962,531.694 658.742,535.196 659.56,538.69C660.457,542.523 675.227,600.193 686.469,654.336C688.099,662.187 694.392,692.2 695.747,710.206C696.098,714.879 695.538,717.4 689.926,728.726C687.044,734.543 669.863,767.626 651.588,794.218C634.89,818.514 625.036,826.423 607.512,819.997C592.198,814.381 575.434,798.23 571.769,794.727C556.04,779.696 545.051,765.553 542.941,762.837C518.138,730.912 513.544,712.661 512.842,710.178C511.153,704.205 511.172,702.029 509.843,690.638C504.55,645.273 498.13,610.986 480.84,560.191C479.158,555.248 472.877,536.798 458.334,498.927L455.649,491.962C452.317,483.349 452.189,483.403 448.618,474.89L468.461,466.564C472.04,475.095 471.932,475.139 475.721,483.578C490.695,516.933 511.558,564.275 523.658,605.409C534.246,641.404 539.324,673.649 543.089,697.147C544.103,703.48 552.178,720.93 573.665,745.714C575.904,748.297 590.264,765.468 608.067,779.506C611.073,781.877 613.465,783.531 615.298,784.679C619.522,779.76 626.908,770.118 638.464,752.191C638.66,751.886 652.478,730.856 662.821,712.111C663.585,710.725 664.093,709.771 664.491,709.002Z"/>
    </g>
    <g transform="matrix(1,0,0,1,25,-34)">
        <path d="M112.265,223.385L119.077,208.218C121.62,209.312 124.142,210.452 126.685,211.546C126.855,211.619 140.143,216.605 157.401,223.72C165.192,226.933 189.264,237.399 205.367,245.489C221.175,253.431 229.125,257.939 237.958,263.108C240.068,264.343 247.51,268.584 259.936,277.075C263.599,279.578 268.018,282.556 276.509,289.398C284.115,295.525 287.195,298.488 288.075,299.333C302.996,313.678 308.361,322.623 309.263,324.038C310.761,326.385 318.338,338.166 320.617,352.997C322.246,363.599 320.052,372.872 319.655,374.551C315.92,390.34 306.161,403.816 292.997,419.547C284.775,429.371 265.622,450.021 247.603,473.228C247.015,473.985 247.004,473.975 246.873,474.166C244.519,477.583 244.579,477.618 242.226,481.034L228.555,471.603C230.097,469.303 231.679,467.031 233.221,464.732C234.533,462.774 238.755,455.285 252.351,435.267C266.93,413.8 279.188,396.905 285.296,383.959C291.328,371.174 291.406,363.602 287.987,354.875C284.892,346.975 279.441,341.04 277.793,339.088C271.526,331.665 264.743,325.935 261.214,322.676C254.538,316.513 250.032,312.989 243.326,307.481C240.607,305.248 238.006,303.03 223.192,291.871C221.569,290.648 215.348,285.962 202.573,277.021C201.046,275.952 195.8,272.281 183.266,263.994C181.615,262.902 167.368,253.311 142.647,239.145C131.668,232.853 122.904,228.271 120.873,227.204C120.006,226.748 120.014,226.741 119.876,226.68C116.084,224.996 116.057,225.067 112.265,223.385Z"/>
    </g>
    <g transform="matrix(1,0,0,1,25,-34)">
        <path d="M697.362,280.468C696.653,285.073 697.067,290.647 712.228,304.504C724.907,316.092 742.58,329.539 761.475,347.801C762.394,348.689 762.387,348.695 762.47,348.768C765.768,351.689 765.807,351.638 769.102,354.556L757.629,367.898C755.41,365.987 753.236,364.024 751.016,362.113C750.256,361.459 745.186,357.804 744.675,357.435C721.189,340.503 702.944,331.073 688.617,319.868C678.002,311.566 664.889,298.787 665.433,277.581C665.578,271.946 667.2,265.685 677.797,247.69C677.862,247.578 681.379,241.856 688.055,231.997C688.551,231.263 688.87,230.489 697.922,218.579C700.565,215.102 701.04,214.306 711.625,201.493C713.306,199.458 713.328,199.249 727.74,182.778C728.607,181.788 740.172,168.917 743.964,164.842L767.505,139.505C769.542,137.319 769.56,137.338 793.109,112.314L805.763,122.616C798.395,133.129 793.544,139.983 784.986,152.619C783.387,154.979 775.883,165.744 765.339,181.679C761.52,187.45 760.339,189.025 753.131,199.891C751.94,201.686 748.645,206.423 741.749,216.742C740.522,218.577 737.044,223.476 730.513,233.093C728.671,235.806 726.141,239.133 718.875,249.642C718.396,250.335 713.077,257.282 707.035,266.016C705.799,267.804 700.851,274.333 697.751,279.959C697.6,280.233 697.595,280.225 697.438,280.492L697.362,280.468Z"/>
    </g>
    <g transform="matrix(1,0,0,1,25,-34)">
        <path d="M200.326,909.699C203.168,906.26 211.248,889.425 247.612,857.53C288.316,821.827 340.469,788.189 357.407,777.043L370.188,795.328C355.042,806.571 272.559,866.058 239.121,914.051C233.036,922.784 231.091,927.62 228.895,930.599C225.376,935.371 221.848,940.137 218.33,944.909L189.908,923.923L200.311,909.688L200.326,909.699Z"/>
    </g>
    <g transform="matrix(1,0,0,1,25,-34)">
        <path d="M386.491,801.159L401.79,819.253C394.474,825.421 394.284,825.205 387.374,831.828C365.551,852.741 343.254,883.436 301.593,963.923C300.628,965.786 300.642,965.792 300.474,966.086C296.087,973.776 296.002,973.722 291.614,981.415L260.929,964.09C263.856,958.962 266.712,953.793 269.639,948.665C270.705,946.796 278.877,933.76 279.687,932.468C328.565,854.496 352.331,828.902 376.804,809.271C377.592,808.639 377.578,808.623 386.491,801.159Z"/>
    </g>
    <g transform="matrix(1,0,0,1,25,-34)">
        <path d="M745.244,716.074L740.755,692.456C793.907,680.985 821.397,675.123 861.067,671.559C880.986,669.769 901.107,668.616 939.672,665.207C941.024,665.087 941.019,665.067 941.844,665.013C951.754,664.368 951.753,664.421 961.668,663.775L963.754,699.131C957.138,699.48 950.525,699.884 943.91,700.234C940.824,700.397 919.848,700.829 917.755,700.872C877.902,701.693 857.809,701.436 831.974,703.766C803.19,706.363 768.34,712.282 745.244,716.074Z"/>
    </g>
    <g transform="matrix(1,0,0,1,25,-34)">
        <path d="M749.915,749.311L753.65,724.993C802.477,731.32 833.495,735.301 869.381,745.413C889.941,751.206 912.026,758.771 950.944,770.424C952.619,770.925 952.619,770.914 953.045,771.051C962.501,774.11 962.481,774.155 971.942,777.214L960.853,810.85C954.568,808.738 948.267,806.674 941.982,804.562C939.304,803.661 922.445,797.411 920.749,796.782C881.976,782.408 862.957,774.448 838.332,767.605C810.39,759.84 775.269,753.826 749.915,749.311Z"/>
    </g>
    <g id="目２">
        <g transform="matrix(1,0,0,1,25,-34)">
            <path d="M420.776,577.912C420.158,578.303 419.588,578.659 419.169,578.911L404.002,588.052L385.721,557.718L400.888,548.577C404.763,546.242 409.831,542.746 414.817,541.368C422.425,539.266 430.139,540.016 437.512,545.933L451.324,557.015L429.159,584.639L420.776,577.912Z"/>
        </g>
        <g transform="matrix(1,0,0,1,25,-34)">
            <path d="M712.381,544.091L696.491,551.907L680.859,520.127L696.749,512.311C706.952,507.292 712.131,507.148 721.12,508.144L738.721,510.094L734.821,545.295L717.22,543.345C715.44,543.148 714.402,543.097 712.381,544.091Z"/>
        </g>
    </g>
    <g id="グループさかな">
        <g transform="matrix(1.37519,0,0,1.173367,-19.802566,-104.892433)">
            <path d="M45.626,620.435C44.898,619.077 44.236,617.828 43.642,616.702C43.268,615.993 43.259,616.003 42.913,615.278C41.306,611.92 41.316,611.917 35.274,599.15L57.79,584.52L62.368,594.172C62.742,594.216 63.116,594.261 63.491,594.308C83.037,596.726 102.575,599.253 122.109,601.811C127.242,602.483 129.774,606.561 130.214,607.27C132.544,611.023 132.403,614.95 132.378,615.649C132.368,615.929 132.335,616.866 131.905,619.099C127.177,643.649 119.932,664.952 112.311,685.02C124.373,702.236 134.896,715.547 142.829,729.71C144.761,733.159 152.059,745.36 157.221,763.997C160.12,774.463 163.538,790.453 165.003,815.823C165.804,829.7 159.546,860.204 150.679,883.592C147.211,892.738 143.818,899.981 139.657,906.632C137.012,910.862 135.188,913.105 132.83,915.542C130.636,917.811 120.37,928.926 108.85,923.645C99.367,919.299 96.457,907.335 91.437,896.282C86.498,885.405 82.192,875.525 76.734,858.7C76.399,857.669 75.098,853.658 72.873,845.678C72.597,844.69 71.45,840.577 69.76,833.204C61.903,798.942 65.333,769.695 71.974,743.642C76.638,725.344 83.089,707.885 89.525,689.561C83.002,680.849 71.805,665.291 60.154,645.996C54.777,637.092 50.269,629.024 46.892,622.785L45.458,622.674L45.626,620.435ZM98.157,663.769C99.753,658.629 101.291,653.375 102.738,647.975C104.88,639.979 106.421,633.107 107.54,627.47L76.73,625.09C81.899,635.607 88.621,648.363 96.516,661.136C97.065,662.024 97.612,662.901 98.157,663.769ZM103.542,707.562C100.761,714.67 98.038,721.716 95.48,728.798C84.852,758.216 78.224,785.427 83.094,817.82C84.408,826.556 85.946,832.181 86.28,833.401C88.299,840.784 89.856,844.878 91.334,848.636C91.871,850.002 96.195,861.56 106.452,878.776C108.703,882.556 108.981,882.702 112.872,889.441C113.146,889.916 114.215,891.813 115.374,893.738C115.805,893.219 116.276,892.613 116.781,891.898C117.11,891.432 120.04,888.071 125.095,877.865C132.109,863.7 139.927,841.304 142.868,824.748C144.012,818.311 143.835,816.118 143.799,813.303C143.415,783.293 139.312,767.421 135.149,756.115C133.212,750.856 130.402,745.443 129.938,744.55C129.462,743.632 126.938,738.543 120.069,728.87C116.421,723.734 109.807,715.439 103.542,707.562Z" style="fill:rgb(255,186,0);"/>
        </g>
        <g transform="matrix(1.37519,0,0,1.173367,-19.802566,-104.892433)">
            <path d="M126.189,860.316L108.566,859.067L106.505,820.373L132.212,822.195L126.189,860.316Z" style="fill:rgb(255,186,0);"/>
        </g>
    </g>
</svg>
