<?xml version="1.0" encoding="UTF-8" standalone="no"?>
<!DOCTYPE svg PUBLIC "-//W3C//DTD SVG 1.1//EN" "http://www.w3.org/Graphics/SVG/1.1/DTD/svg11.dtd">
<svg width="100%" height="100%" viewBox="0 0 1000 1000" version="1.1" xmlns="http://www.w3.org/2000/svg" xmlns:xlink="http://www.w3.org/1999/xlink" xml:space="preserve" xmlns:serif="http://www.serif.com/" style="fill-rule:evenodd;clip-rule:evenodd;stroke-linejoin:round;stroke-miterlimit:2;">
    <g transform="matrix(1,0,0,1,25,-34)">
        <path d="M539.013,886.324L530.667,864.136C534.384,862.662 538.071,861.112 541.788,859.639C541.931,859.582 546.718,858.85 553.508,857.242C556.712,856.483 561.295,854.978 561.965,854.758C573.032,851.124 578.075,847.752 587.141,843.037C588.464,842.349 594.22,839.446 599.662,837.225C600.63,836.83 607.017,834.094 611.832,832.373C622.658,828.504 633.718,829.358 655.432,829.98C673.473,830.496 673.548,830.244 674.318,830.321C678.425,830.732 682.455,831.751 686.562,832.163L682.854,855.875C678.818,855.013 674.669,854.753 670.633,853.891C669.274,853.601 669.386,853.224 653.995,848.908C640.295,845.065 628.438,842.367 620.426,842.976C616.426,843.279 613.804,844.089 608.619,845.953C608.091,846.143 604.428,847.312 598.134,850.617C597.249,851.081 593.108,853.501 589.782,855.89C582.982,860.776 575.733,866.57 563.349,874.134C556.993,878.016 557.032,878.071 550.623,881.874C549.768,882.382 549.699,882.229 539.013,886.324Z"/>
    </g>
    <g transform="matrix(1,0,0,1,25,-34)">
        <path d="M165.003,442.551L151.26,452.559C147,446.811 146.907,446.881 143.958,442.575C133.464,427.257 87.998,354.437 63.432,287.943C48.901,248.611 39.532,206.325 57.365,182.562C91.875,136.579 135.565,155.689 157.646,166.633C169.262,172.39 172.799,174.833 181.976,178.625C242.124,203.48 285.668,233.346 288.519,235.249C299.736,242.735 312.948,252.148 326.575,263.262C347.565,280.382 359.845,293.614 367.914,301.937L355.592,313.876C346.924,304.949 312.112,266.383 234.384,225.385C199.891,207.191 174.228,197.725 169.827,195.803C150.081,187.179 120.482,166.362 95.004,177.692C85.094,182.1 78.22,190.015 74.232,195.251C63.35,209.539 66.859,247.92 95.344,313.844C95.406,313.988 113.663,357.87 145.446,412.07C149.188,418.451 152.478,423.86 154.964,427.825C159.701,435.379 159.832,435.288 165.003,442.551Z"/>
    </g>
    <g transform="matrix(1,0,0,1,25,-34)">
        <path d="M353.271,314.045L345.083,297.032C359.864,290.058 375.451,283.371 404.541,261.799C428.849,243.774 444.651,230 470.035,225.575C507.945,218.968 527.287,231.057 602.462,241.828C617.003,243.912 622.982,244.519 642.566,246.937L640.284,265.528C631.724,264.476 596.776,260.484 549.69,250.541C511.819,242.544 496.652,238.013 471.678,242.765C438.297,249.116 418.017,282.268 362.346,309.593L353.271,314.045Z"/>
    </g>
    <g transform="matrix(1,0,0,1,25,-34)">
        <path d="M745.438,95.881C736.142,105.616 699.935,148.826 669.807,189.424C626.526,247.748 615.351,273.885 613.305,278.052L598.31,270.7C603.452,260.129 607.004,252.429 614.87,238.597C617.891,233.285 643.837,186.921 701.507,113.338C711.105,101.091 727.402,80.777 731.189,77.526C731.224,77.496 732.575,75.961 738.53,73.711C753.5,68.056 782.316,64.634 818.487,59.678C833.382,57.637 833.406,57.824 868.408,52.79C869.581,52.621 870.75,52.414 871.927,52.277C872.594,52.2 873.266,52.132 873.937,52.146C879.347,52.256 882.247,55.781 882.744,56.385C901.426,79.091 895.867,107.061 882.35,155.179C873.388,187.08 860.048,230.746 846.39,284.704C844.122,293.662 842.004,302.271 840.118,310.107C834.549,333.239 833.103,340.61 832.476,343.519L816.148,340.01C818.193,330.503 818.196,330.507 820.157,320.985C835.858,244.754 850.749,190.856 858.735,160.228C865.747,133.34 871.204,111.078 871.694,95.625C871.988,86.354 870.413,80.691 868.289,76.686C836.92,81.595 810.53,84.906 803.413,85.831C770.76,90.079 753.884,92.452 745.438,95.881Z"/>
    </g>
    <g transform="matrix(1,0,0,1,25,-34)">
        <path d="M815.041,798.026C827.902,755.112 834.039,740.268 839.036,722.365C846.121,696.981 845.039,682.094 835.965,644.607C832.565,630.565 827.839,611.325 823.836,543.352C819.152,463.793 817.511,371.297 816.355,326.564L833.705,325.988C834.18,329.128 834.965,332.216 835.439,335.355C835.466,335.531 836.359,357.029 838.275,395.612C838.442,398.972 840.143,435.573 843.367,489.746C843.892,498.552 847.751,563.394 852.145,599.66C856.24,633.466 859.588,636.421 864.285,661.866C873.76,713.202 860.905,726.695 836.876,802.679C835.155,808.121 834.219,812.598 815.646,828.726C797.609,844.387 771.504,863.873 758.127,877.921C739.49,897.494 732.69,907.366 703.585,908.086C693.304,908.34 680.679,907.435 666.902,906.64L667.991,887.832C675.406,888.26 700.016,890.121 712.716,887.837C724.808,885.662 728.597,879.994 743.232,864.004C762.695,842.739 805.871,811.207 814.543,798.812C814.825,798.409 814.864,798.364 815.041,798.026Z"/>
    </g>
    <g transform="matrix(1,0,0,1,25,-34)">
        <path d="M118.678,378.726L136.023,375.099C136.775,378.055 137.625,380.985 138.376,383.941C138.383,383.967 156.892,467.806 172.182,536.117L208.941,700.976C216.58,734.924 219.867,749.612 235.255,766.995C252.946,786.979 280.848,806.34 340.621,870.022C345.048,874.737 353.233,876.032 376.469,872.7C402.977,868.898 439.663,860.85 495.546,856.521C496.571,856.442 496.57,856.434 508.351,855.456L509.858,873.665C499.035,874.563 470.727,876.535 423.425,885.066C376.294,893.566 350.121,901.149 331.902,890.345C327.444,887.701 325.44,885.29 320.482,880.221C239.47,797.391 213.588,791.302 197.572,750.595C192.575,737.893 190.08,726.481 184.377,700.526C181.635,688.047 173.255,649.911 151.723,544.194L134.081,456.284C126.338,417.51 126.477,417.486 118.678,378.726Z"/>
    </g>
    <g transform="matrix(1,0,0,1,25,-34)">
        <path d="M657.386,882.375C657.269,882.115 657.206,881.963 657.244,881.904C657.694,881.191 657.935,881.415 663.037,876.1C663.231,875.898 675.569,864.204 677.531,862.446C692.51,849.027 700.823,842.327 708.473,836.172C727.512,820.854 742.165,809.906 745.14,807.683C767.083,791.288 780.486,781.794 783.595,779.592L789.896,775.138C791.824,773.777 797.138,769.694 799.171,768.146L808.456,780.349C807.18,781.322 801.048,785.95 799.268,787.419C798.797,787.807 779.51,803.786 771.591,810.453C764.95,816.045 743.933,833.927 727.689,848.533C725.959,850.088 720.741,854.78 706.278,868.209C698.237,875.676 697.445,876.604 691.263,882.414C681.847,891.261 680.953,892.321 678.278,894.54C673.883,898.184 670.388,900.929 665.878,902.574C658.567,905.241 653.072,902.942 649.866,901.975C629.244,895.751 614.711,894.53 609.274,894.142C609.069,894.128 602.69,893.794 598.506,894.02C592.737,894.332 590.747,894.673 587.409,895.265C582.569,896.123 577.924,897.089 567.577,900.374C555.371,904.249 540.384,911.113 520.105,909.918C513.429,909.525 507.525,905.318 494.505,893.802C493.539,892.948 484.194,884.282 481.641,881.712C480.952,881.019 473.757,873.776 473.062,873.024C472.663,872.592 464.372,863.385 464.171,863.153C456.168,853.928 452.877,849.953 451.914,848.789C431.921,824.642 431.902,824.659 426.891,818.487C425.049,816.218 414.682,803.449 403.795,790.198L390.272,773.734L401.28,763.862L407.52,770.417C412.251,775.264 424.117,787.465 441.665,805.26C449.834,813.544 449.767,813.601 469.024,833.444C470.073,834.525 473.201,837.748 481.965,847.118C482.561,847.755 482.54,847.773 489.293,855.201C492.132,858.324 492.05,858.389 498.604,866.122C500.085,867.87 510.896,881.37 515.891,886.918C520.657,892.21 521.917,892.615 521.867,892.801C521.858,892.833 521.85,892.864 521.842,892.892L521.848,892.894L521.842,892.893C521.841,892.895 521.84,892.898 521.84,892.9C537.256,895.908 546.649,893.318 567.127,888.742C580.947,885.654 590.618,884.693 591.849,884.512C595.516,883.974 603.531,883.093 605.141,882.938C619.227,881.585 633.563,880.913 657.189,882.367C657.261,882.372 657.326,882.374 657.386,882.375ZM521.762,892.882L521.717,892.876C521.731,892.879 521.746,892.882 521.761,892.885L521.762,892.882Z"/>
    </g>
    <g transform="matrix(1,0,0,1,25,-34)">
        <path d="M669.572,710.156C669.23,702.214 666.918,672.277 648.328,575.154C645.168,558.646 642.565,545.735 642.418,545C641.954,542.688 641.96,542.689 641.933,542.581C641.062,539.036 640.96,539.066 640.088,535.522L654.544,532.327C655.094,534.696 655.623,537.069 656.173,539.437C657.229,543.988 676.362,622.188 686.205,677.482C689.144,693.995 690.097,703.507 690.325,705.784C691.027,712.79 690.756,713.162 690.642,713.857C690.458,714.969 690.43,717.612 678.22,739.813C664.854,764.118 644.66,797.497 632.229,809.547C624.951,816.602 619.275,817.746 611.31,815.303C597.078,810.938 578.152,794.299 561.677,776.294C542.068,754.864 524.072,728.923 518.187,709.713C516.368,703.776 516.323,701.334 515.138,691.695C507.74,631.55 498.963,594.851 472.422,525.388C464.567,504.83 457.66,487.478 456.984,485.865L453.158,476.746L466.605,471.104C470,479.197 469.978,479.204 473.5,487.243C505.794,560.963 519.41,599.486 529.203,647.234C534.482,672.973 537.645,696.75 538.18,699.186C540.427,709.42 550.963,727.816 569.373,749.305C569.826,749.833 586.626,770.157 605.333,784.601C605.595,784.803 611.679,789.589 616.437,791.795C620.499,787.692 628.9,777.286 643.072,755.065C645.728,750.9 656.91,733.523 666.699,715.659C668.239,712.849 669.101,711.135 669.572,710.156Z"/>
    </g>
    <g transform="matrix(1,0,0,1,25,-34)">
        <path d="M111.863,223.486L118.932,207.745C121.565,208.905 124.186,210.089 126.818,211.249C131.278,213.213 160.706,225.047 198.47,245.268C212.956,253.024 226.705,261.467 229.118,262.948C238.562,268.748 267.509,286.721 288.753,307.886C299.323,318.417 310.084,331.186 314.838,347.921C323.867,379.708 302.867,404.143 277.433,435.336C265.88,449.506 257.943,459.471 248.194,472.831C248.161,472.876 248.161,472.876 242.241,481.44L228.052,471.651C232.105,465.779 232.128,465.8 236.11,459.874C261.964,421.395 285.043,396.157 291.983,376.914C294.592,369.678 296.867,359.685 288.675,345.184C286.054,340.545 279.559,330.748 259.871,313.928C257.211,311.656 235.852,293.312 199.651,270.804C166.016,249.892 137.511,235.575 121.71,227.925C121.553,227.849 119.849,227.024 119.743,226.977C117.122,225.8 114.484,224.662 111.863,223.486Z"/>
    </g>
    <g transform="matrix(1,0,0,1,25,-34)">
        <path d="M692.882,279.128C692.062,286.738 694.348,293.296 710.448,306.746C722.961,317.2 740.967,329.967 760.204,347.161C761.708,348.506 768.667,354.468 768.747,354.537L757.654,367.438C749.987,360.86 750.066,360.765 742.041,354.627C716.411,335.024 695.253,323.635 682.323,309.46C678.249,304.994 668.429,293.472 670.209,276.045C670.99,268.404 678.703,255.115 694.635,232.469C695.554,231.164 703.722,220.031 707.081,215.657C714.461,206.047 720.363,198.394 738.816,175.93C760.398,149.656 791.97,113.524 792.873,112.485L805.644,122.882C802.196,127.411 779.916,156.676 762.902,179.76L736.651,215.398C728.702,226.184 711.722,249.619 705.746,258.275C694.519,274.538 693.368,277.929 692.882,279.128Z"/>
    </g>
    <g transform="matrix(1,0,0,1,25,-34)">
        <path d="M356.394,782.052L365.136,794.559C342.46,811.073 257.177,872.294 228.538,920.192C227.003,922.758 225.361,925.773 224.288,927.229C221.903,930.463 219.512,933.692 217.128,936.926L197.87,922.707C198.486,921.865 205.3,912.551 205.553,912.171C209.997,905.476 220.297,887.419 258.636,854.413C296.524,821.795 341.597,791.983 356.394,782.052Z"/>
    </g>
    <g transform="matrix(1,0,0,1,25,-34)">
        <path d="M386.032,806.53L396.401,818.794C389.209,824.856 374.799,836.085 355.343,862.858C338.724,885.729 319.897,917.518 296.65,961.125C295.736,962.841 295.752,962.845 295.504,963.278C292.526,968.488 292.464,968.448 289.485,973.657L268.707,961.926C270.689,958.45 272.626,954.949 274.609,951.473C276.098,948.861 283.643,936.505 284.435,935.208C332.017,857.285 355.311,831.77 379.282,812.186C379.827,811.74 379.819,811.736 386.032,806.53Z"/>
    </g>
    <g transform="matrix(1,0,0,1,25,-34)">
        <path d="M748.437,711.592L745.37,695.455C799.592,684.208 825.372,679.197 864.884,676.179C885.294,674.62 903.712,673.709 939.999,670.862C940.725,670.805 941.45,670.737 942.177,670.69C946.893,670.386 951.611,670.113 956.327,669.809L957.741,693.767C953.019,694.019 948.299,694.305 943.577,694.557C939.238,694.788 919.568,695.384 917.48,695.447C877.694,696.652 857.53,696.583 831.429,699.182C803.804,701.933 771.303,707.649 748.437,711.592Z"/>
    </g>
    <g transform="matrix(1,0,0,1,25,-34)">
        <path d="M754.522,746.073L757.072,729.465C808.029,736.464 836.035,740.591 871.275,751.077C890.721,756.863 912.512,764.458 949.164,775.804C951.095,776.402 951.094,776.398 951.262,776.452C958.015,778.64 958.003,778.668 964.753,780.855L957.239,803.648C952.751,802.142 948.253,800.667 943.765,799.16C939.062,797.582 920.999,791.047 919.023,790.332C881.937,776.915 863.177,769.334 838.345,762.75C811.586,755.656 778.864,750.216 754.522,746.073Z"/>
    </g>
    <g id="目２">
        <g transform="matrix(1,0,0,1,25,-34)">
            <path d="M421.215,570.946C419.696,571.89 417.416,573.303 416.223,574.022L405.945,580.216L393.557,559.661L403.835,553.467C407.327,551.362 411.844,548.112 416.337,546.87C422.236,545.24 428.223,545.797 433.94,550.385L443.299,557.895L428.279,576.614L421.215,570.946Z"/>
        </g>
        <g transform="matrix(1,0,0,1,25,-34)">
            <path d="M709.861,538.969L699.094,544.265L688.5,522.73L699.268,517.433C708.153,513.063 712.664,512.95 720.492,513.817L732.419,515.139L729.776,538.993L717.849,537.671C714.907,537.345 713.201,537.326 709.861,538.969Z"/>
        </g>
    </g>
    <g>
        <g transform="matrix(1.37519,0,0,1.173367,-19.802566,-104.892433)">
            <path d="M93.181,688.677C88.664,682.593 83.893,675.899 78.871,668.353C73.053,659.611 61.542,642.189 47.245,614.316C46.882,613.608 46.876,613.616 46.532,612.897C45.506,610.752 45.511,610.752 40.917,601.046L56.175,591.132C57.687,594.322 58.873,596.822 59.792,598.759C60.845,598.87 61.898,598.985 62.95,599.11C82.563,601.439 102.172,603.814 121.778,606.225C126.033,606.748 127.659,610.542 127.926,611.167C128.063,611.486 128.811,613.231 128.737,615.537C128.67,617.602 126.58,627.087 126.361,628.082C121.745,649.029 115.297,667.85 108.632,685.608C122.743,705.52 133.884,718.853 143.233,736.593C154.138,757.288 159.72,780.906 161.525,814.729C161.563,815.438 162.668,824.827 157.192,848.28C154.386,860.296 149.363,877.951 141.952,893.52C140.308,896.973 136.259,904.688 132.266,909.498C130.146,912.052 127.241,914.964 124.89,916.686C123.833,917.46 115.288,924.262 107.062,917.363C101.645,912.82 99.313,904.634 93.95,893.454C91.099,887.51 84.37,873.387 78.38,854.856C76.568,849.25 72.889,837.036 70.642,824.718C61.138,772.641 77.652,732.254 93.181,688.677ZM69.724,619.922C80.621,642.292 90.468,658.68 99.066,671.675C99.137,671.462 99.207,671.249 99.278,671.036C106.047,650.576 109.631,635.807 111.932,623.487L69.724,619.922ZM102.689,701.151C96.532,717.093 90.6,732.392 86.175,747.891C78.614,774.375 75.799,800.433 83.112,831.464C83.482,833.035 85.114,839.304 86.936,844.565C88.798,849.939 93.211,862.372 103.652,880.755C105.865,884.65 106.519,885.488 109.826,891.504C111.606,894.741 113.589,898.455 115.048,900.431C116.234,899.414 118.807,896.959 122.107,892.009C128.724,882.085 137.313,861.903 142.92,840.839C146.439,827.616 147.278,819.672 147.239,816.58C146.829,784.449 142.492,767.192 137.779,754.685C136.608,751.577 133.658,744.745 130.185,738.829C122.813,726.273 113.639,715.213 102.689,701.151ZM116.242,901.684C116.244,901.681 116.247,901.677 116.249,901.673C116.325,901.553 116.31,901.573 116.241,901.685C116.241,901.685 116.241,901.684 116.242,901.684Z" style="fill:rgb(255,186,0);"/>
        </g>
        <g transform="matrix(1.37519,0,0,1.173367,-19.802566,-104.892433)">
            <path d="M123.993,856.065L111.183,855.158L110.438,824.747L127.858,825.981L123.993,856.065Z" style="fill:rgb(255,186,0);"/>
        </g>
    </g>
</svg>
