<?xml version="1.0" encoding="UTF-8" standalone="no"?>
<!DOCTYPE svg PUBLIC "-//W3C//DTD SVG 1.1//EN" "http://www.w3.org/Graphics/SVG/1.1/DTD/svg11.dtd">
<svg width="100%" height="100%" viewBox="0 0 777 308" version="1.1" xmlns="http://www.w3.org/2000/svg" xmlns:xlink="http://www.w3.org/1999/xlink" xml:space="preserve" xmlns:serif="http://www.serif.com/" style="fill-rule:evenodd;clip-rule:evenodd;stroke-linejoin:round;stroke-miterlimit:2;">
    <g>
        <g transform="matrix(2.36056,0,0,2.36056,-1774.737531,-2093.930451)">
            <path d="M807.765,1016.44C812.878,987.847 837.819,947.775 851.28,940.366C846.793,934.313 841.784,930.87 835.419,929.826C828.531,935.67 822.27,945.479 816.53,957.897C810.06,960.819 804.217,960.193 801.399,958.002C792.111,950.801 802.443,928.678 813.087,913.755C823.835,898.52 842.097,891.319 848.359,899.772C852.011,904.781 835.419,912.399 832.288,922.417C834.897,928.887 850.028,929.2 853.994,927.321C851.907,920.434 871.525,902.172 856.603,892.363C818.513,867.422 749.222,952.784 786.685,972.82C792.842,976.159 801.921,974.803 811.521,970.211C807.347,981.168 803.799,993.587 800.669,1006.84C800.877,1010.701 805.051,1014.666 807.765,1016.44Z" style="fill:white;fill-rule:nonzero;"/>
            <path d="M872.464,964.159C885.822,965.828 893.335,954.558 897.718,945.479C906.797,946.731 916.919,944.749 919.32,937.026L912.223,932.435C910.241,937.131 904.814,937.757 899.805,936.922C899.91,932.748 899.597,928.574 898.136,926.069C894.379,918.764 888.744,918.556 884.883,921.895C883.735,919.808 882.274,918.347 879.978,918.347C858.898,918.347 843.349,960.506 872.464,964.159ZM872.151,952.575C865.994,949.549 870.377,937.026 880.291,933.165C880.291,934.835 880.604,936.505 881.23,938.279C882.482,939.948 884.778,941.931 886.761,942.975C882.9,950.279 876.221,954.662 872.151,952.575Z" style="fill:white;fill-rule:nonzero;"/>
            <path d="M912.85,966.663C915.354,963.846 917.546,960.297 919.32,956.332C923.494,950.175 927.459,944.331 931.633,939.948C931.112,946.418 929.755,953.097 927.564,960.193C930.068,963.95 934.034,966.454 939.773,966.767C941.756,958.002 946.347,949.549 951.356,943.392C950.208,954.245 954.904,963.741 965.131,964.159C980.993,964.472 992.368,946.523 996.229,937.026L988.924,932.435C981.097,948.818 970.558,954.454 967.636,951.636C964.505,948.818 967.01,945.375 972.54,932.957C971.706,929.409 964.088,925.547 960.644,924.504C960.331,924.295 960.122,923.982 959.913,923.773L959.392,924.295L958.974,924.817C954.591,929.617 949.895,934.418 945.617,938.8C945.826,935.774 945.617,932.957 945.199,931.287C941.234,926.904 936.642,925.965 932.99,927.008C932.781,926.904 932.677,926.904 932.468,926.904L932.155,927.217C932.051,927.321 931.842,927.321 931.738,927.426L931.738,927.635C929.546,930.035 927.564,932.226 925.685,934.313C925.894,932.122 925.79,930.348 925.476,928.991C920.989,923.982 915.876,923.669 911.806,925.13C912.85,935.357 906.38,954.975 900.953,959.88C903.04,963.219 906.38,965.724 911.076,966.454L912.119,967.289C912.223,967.081 912.432,966.872 912.537,966.663L912.85,966.663Z" style="fill:white;fill-rule:nonzero;"/>
            <path d="M1000.194,964.159C1005.725,962.489 1011.569,958.419 1016.891,952.888C1018.665,959.358 1023.152,963.846 1030.144,964.159C1045.902,964.472 1057.276,946.523 1060.929,937.026L1053.832,932.33C1046.006,948.818 1035.466,954.454 1032.544,951.636C1029.622,948.818 1031.918,945.375 1037.553,932.957C1036.823,928.887 1026.492,924.295 1024.405,924.295C1023.465,925.443 1022.63,926.591 1021.796,927.843C1016.161,918.451 1000.82,918.138 989.759,931.704C974.732,950.071 980.889,969.689 1000.194,964.159ZM1001.864,952.68C994.455,954.871 994.246,947.671 1004.368,936.609C1012.404,927.635 1016.578,930.661 1017.621,936.713L1017.1,938.696C1012.091,945.375 1006.247,951.636 1001.864,952.68Z" style="fill:white;fill-rule:nonzero;"/>
            <path d="M855.037,984.821C847.106,1002.561 874.969,991.813 864.325,1009.866C920.467,978.977 1010.212,978.246 1049.137,983.151C1049.137,982.108 1054.041,977.307 1051.641,974.281C1034.527,970.629 896.466,966.037 855.037,984.821Z" style="fill:white;fill-rule:nonzero;"/>
        </g>
    </g>
</svg>
